<svg xmlns="http://www.w3.org/2000/svg" width="32" height="32" viewBox="0 0 32 32">
  <g id="Group_563" data-name="Group 563" transform="translate(-5571.947 13977.053)">
    <rect id="Rectangle_1020" data-name="Rectangle 1020" width="32" height="32" transform="translate(5571.947 -13977.053)" fill="none" opacity="0"/>
    <g id="Icon_material-pets" data-name="Icon material-pets" transform="translate(5574.658 -13973.681)">
      <path id="Path_6" data-name="Path 6" d="M9.644,13.822A3.322,3.322,0,1,1,6.322,10.5a3.322,3.322,0,0,1,3.322,3.322Z" transform="translate(-3 -5.184)" fill="#fff"/>
      <path id="Path_7" data-name="Path 7" d="M16.394,7.822A3.322,3.322,0,1,1,13.072,4.5a3.322,3.322,0,0,1,3.322,3.322Z" transform="translate(-3.77 -4.5)" fill="#fff"/>
      <path id="Path_8" data-name="Path 8" d="M25.394,7.822A3.322,3.322,0,1,1,22.072,4.5a3.322,3.322,0,0,1,3.322,3.322Z" transform="translate(-4.797 -4.5)" fill="#fff"/>
      <path id="Path_9" data-name="Path 9" d="M32.144,13.822A3.322,3.322,0,1,1,28.822,10.5a3.322,3.322,0,0,1,3.322,3.322Z" transform="translate(-5.567 -5.184)" fill="#fff"/>
      <path id="Path_10" data-name="Path 10" d="M23.726,21.544c-1.156-1.355-2.126-2.512-3.3-3.867a5.638,5.638,0,0,0-2.326-1.754,2.691,2.691,0,0,0-.439-.12,6.688,6.688,0,0,0-1.037-.053,5.575,5.575,0,0,0-1.05.066,2.691,2.691,0,0,0-.439.12,5.725,5.725,0,0,0-2.326,1.754c-1.156,1.355-2.126,2.512-3.3,3.867C7.78,23.3,5.64,25.225,6.039,27.923a4.172,4.172,0,0,0,3.1,3.083c.97.2,4.066-.585,7.362-.585h.239c3.3,0,6.392.771,7.362.585a4.192,4.192,0,0,0,3.1-3.083c.412-2.711-1.728-4.638-3.468-6.379Z" transform="translate(-3.341 -5.783)" fill="#fff"/>
    </g>
  </g>
</svg>
